<?xml version="1.0" encoding="UTF-8"?>
<svg id="Layer_2" data-name="Layer 2" xmlns="http://www.w3.org/2000/svg" viewBox="0 0 428.85 343.69">
  <defs>
    <style>
      .cls-1 {
        fill: #fff;
      }
    </style>
  </defs>
  <g id="Layer_1-2" data-name="Layer 1">
    <path class="cls-1" d="m56.48,340.09L9.44,172.09h46.32l25.92,105.84,30-105.84h33.84l30,105.84,26.16-105.84h46.08l-46.8,168h-45.36l-26.88-94.8-26.88,94.8h-45.36Z"/>
    <path class="cls-1" d="m226.28,172.09h42.96v168h-42.96v-168Z"/>
    <path class="cls-1" d="m428.85,243.85v17.04c0,24.64-7.72,44.6-23.16,59.88-15.44,15.28-35.48,22.92-60.12,22.92-26.24,0-47.8-8.4-64.68-25.2-16.88-16.8-25.32-37.52-25.32-62.16s8.4-45.44,25.2-62.4c16.8-16.96,37.6-25.44,62.4-25.44,15.68,0,30.04,3.52,43.08,10.56,13.04,7.04,23.24,16.4,30.6,28.08l-36.48,20.88c-3.36-5.28-8.28-9.52-14.76-12.72-6.48-3.2-13.8-4.8-21.96-4.8-13.28,0-24.16,4.32-32.64,12.96-8.48,8.64-12.72,19.68-12.72,33.12s4.2,23.92,12.6,32.88c8.4,8.96,20.2,13.44,35.4,13.44,19.52,0,32.4-7.36,38.64-22.08h-40.8v-36.96h84.72Z"/>
    <path class="cls-1" d="m360.97,61.88v55.16L179.19,0,0,155.02l409.47-.79V61.86l-48.49.02Zm-227.86-7.01h29.29v29.29h-29.29v-29.29Zm4.44,67.88h-29.29v-29.29h29.29v29.29Zm49.29,0h-29.29v-29.29h29.29v29.29Z"/>
  </g>
</svg>